HIERARCHY
ROOT Hips
{
  OFFSET 0 0.240689 0
  CHANNELS 6 Xposition Yposition Zposition Zrotation Xrotation Yrotation
  JOINT Bip01_Spine0
  {
    OFFSET 0 -24.7459 49.7988
    CHANNELS 6 Xposition Yposition Zposition Zrotation Xrotation Yrotation
    JOINT Bip01_Pelvis
    {
      OFFSET 0 0 0
      CHANNELS 6 Xposition Yposition Zposition Zrotation Xrotation Yrotation
      JOINT Bip01_Spine0_Tail
      {
        OFFSET -6.47486 -3.86022 0
        CHANNELS 6 Xposition Yposition Zposition Zrotation Xrotation Yrotation
        JOINT Bip01_Spine0_Tail1
        {
          OFFSET 10.3837 -0.00825882 0
          CHANNELS 6 Xposition Yposition Zposition Zrotation Xrotation Yrotation
          JOINT Bip01_Spine0_Tail2
          {
            OFFSET 10.3837 -0.00826263 0
            CHANNELS 6 Xposition Yposition Zposition Zrotation Xrotation Yrotation
            JOINT Bip01_Spine0_Tail3
            {
              OFFSET 10.3837 -0.00825882 0
              CHANNELS 6 Xposition Yposition Zposition Zrotation Xrotation Yrotation
              JOINT Bip01_Spine0_Tail4
              {
                OFFSET 10.3837 -0.00826263 0
                CHANNELS 6 Xposition Yposition Zposition Zrotation Xrotation Yrotation
                End Site
                {
                  OFFSET 0 0 0
                }
              }
            }
          }
        }
      }
      JOINT Bip01_R_Thigh
      {
        OFFSET 0 -1.52588e-005 -8.75617
        CHANNELS 6 Xposition Yposition Zposition Zrotation Xrotation Yrotation
        JOINT Bip01_R_Calf
        {
          OFFSET 19.7638 0 0
          CHANNELS 6 Xposition Yposition Zposition Zrotation Xrotation Yrotation
          JOINT Bip01_R_Foot
          {
            OFFSET 18.6534 0 0
            CHANNELS 6 Xposition Yposition Zposition Zrotation Xrotation Yrotation
            JOINT Bip01_R_Toe0
            {
              OFFSET 5.09145 13.9567 0
              CHANNELS 6 Xposition Yposition Zposition Zrotation Xrotation Yrotation
              JOINT Bip01_R_Toe01
              {
                OFFSET 4.28803 0 0
                CHANNELS 6 Xposition Yposition Zposition Zrotation Xrotation Yrotation
                JOINT Bip01_R_Toe02
                {
                  OFFSET 3.85801 0 0
                  CHANNELS 6 Xposition Yposition Zposition Zrotation Xrotation Yrotation
                  End Site
                  {
                    OFFSET 0 0 0
                  }
                }
              }
            }
          }
        }
      }
      JOINT Bip01_L_Thigh
      {
        OFFSET 0 1.52588e-005 8.75617
        CHANNELS 6 Xposition Yposition Zposition Zrotation Xrotation Yrotation
        JOINT Bip01_L_Calf
        {
          OFFSET 19.7638 0 0
          CHANNELS 6 Xposition Yposition Zposition Zrotation Xrotation Yrotation
          JOINT Bip01_L_Foot
          {
            OFFSET 18.6534 0 0
            CHANNELS 6 Xposition Yposition Zposition Zrotation Xrotation Yrotation
            JOINT Bip01_L_Toe0
            {
              OFFSET 5.09144 13.9567 0
              CHANNELS 6 Xposition Yposition Zposition Zrotation Xrotation Yrotation
              JOINT Bip01_L_Toe01
              {
                OFFSET 4.28802 0 0
                CHANNELS 6 Xposition Yposition Zposition Zrotation Xrotation Yrotation
                JOINT Bip01_L_Toe02
                {
                  OFFSET 3.85801 0 0
                  CHANNELS 6 Xposition Yposition Zposition Zrotation Xrotation Yrotation
                  End Site
                  {
                    OFFSET 0 0 0
                  }
                }
              }
            }
          }
        }
      }
      JOINT Bip01_Spine
      {
        OFFSET 9.14835 -0.00640869 -1.1e-005
        CHANNELS 6 Xposition Yposition Zposition Zrotation Xrotation Yrotation
        JOINT Bip01_Spine1
        {
          OFFSET 8.04366 -0.00638199 0
          CHANNELS 6 Xposition Yposition Zposition Zrotation Xrotation Yrotation
          JOINT Bip01_Spine2
          {
            OFFSET 8.04367 -0.00639343 0
            CHANNELS 6 Xposition Yposition Zposition Zrotation Xrotation Yrotation
            JOINT Bip01_Spine3
            {
              OFFSET 8.04304 -0.00831222 0
              CHANNELS 6 Xposition Yposition Zposition Zrotation Xrotation Yrotation
              JOINT Bip01_Neck
              {
                OFFSET 10.6685 1.06813 0
                CHANNELS 6 Xposition Yposition Zposition Zrotation Xrotation Yrotation
                JOINT Bip01_R_Clavicle
                {
                  OFFSET -3.21661 -4.89635 -9.04802
                  CHANNELS 6 Xposition Yposition Zposition Zrotation Xrotation Yrotation
                  JOINT Bip01_R_UpperArm
                  {
                    OFFSET 19.0492 0 0
                    CHANNELS 6 Xposition Yposition Zposition Zrotation Xrotation Yrotation
                    JOINT Bip01_R_Forearm
                    {
                      OFFSET 10.3706 0 0
                      CHANNELS 6 Xposition Yposition Zposition Zrotation Xrotation Yrotation
                      JOINT Bip01_R_Hand
                      {
                        OFFSET 22.8632 0 0
                        CHANNELS 6 Xposition Yposition Zposition Zrotation Xrotation Yrotation
                        JOINT Bip01_R_Finger0
                        {
                          OFFSET 6.48259 0.103651 0.504496
                          CHANNELS 6 Xposition Yposition Zposition Zrotation Xrotation Yrotation
                          JOINT Bip01_R_Finger01
                          {
                            OFFSET 3.66847 0 0
                            CHANNELS 6 Xposition Yposition Zposition Zrotation Xrotation Yrotation
                            End Site
                            {
                              OFFSET 0 0 0
                            }
                          }
                        }
                      }
                    }
                  }
                }
                JOINT Bip01_L_Clavicle
                {
                  OFFSET -3.21661 -4.89641 9.04797
                  CHANNELS 6 Xposition Yposition Zposition Zrotation Xrotation Yrotation
                  JOINT Bip01_L_UpperArm
                  {
                    OFFSET 19.0492 0 0
                    CHANNELS 6 Xposition Yposition Zposition Zrotation Xrotation Yrotation
                    JOINT Bip01_L_Forearm
                    {
                      OFFSET 10.3706 0 0
                      CHANNELS 6 Xposition Yposition Zposition Zrotation Xrotation Yrotation
                      JOINT Bip01_L_Hand
                      {
                        OFFSET 22.8631 0 0
                        CHANNELS 6 Xposition Yposition Zposition Zrotation Xrotation Yrotation
                        JOINT Bip01_L_Finger0
                        {
                          OFFSET 6.48257 0.103655 -0.504492
                          CHANNELS 6 Xposition Yposition Zposition Zrotation Xrotation Yrotation
                          JOINT Bip01_L_Finger01
                          {
                            OFFSET 3.66844 0 0
                            CHANNELS 6 Xposition Yposition Zposition Zrotation Xrotation Yrotation
                            End Site
                            {
                              OFFSET 0 0 0
                            }
                          }
                        }
                      }
                    }
                  }
                }
                JOINT Bip01_Neck1
                {
                  OFFSET 7.52459 -0.00656509 0
                  CHANNELS 6 Xposition Yposition Zposition Zrotation Xrotation Yrotation
                  JOINT Bip01_Neck2
                  {
                    OFFSET 8.4783 -0.00588226 0
                    CHANNELS 6 Xposition Yposition Zposition Zrotation Xrotation Yrotation
                    JOINT Bip01_Head
                    {
                      OFFSET 8.41606 0 0
                      CHANNELS 6 Xposition Yposition Zposition Zrotation Xrotation Yrotation
                      JOINT EyesBlue
                      {
                        OFFSET 0 0 0
                        CHANNELS 6 Xposition Yposition Zposition Zrotation Xrotation Yrotation
                        JOINT EyesBlue_2
                        {
                          OFFSET 0 -0.500007 0
                          CHANNELS 6 Xposition Yposition Zposition Zrotation Xrotation Yrotation
                          End Site
                          {
                            OFFSET 0 0 0
                          }
                        }
                      }
                      JOINT Bip01_Head2_Eyeleds
                      {
                        OFFSET 6.52751 7.61746 2.2e-005
                        CHANNELS 6 Xposition Yposition Zposition Zrotation Xrotation Yrotation
                        End Site
                        {
                          OFFSET 0 0 0
                        }
                      }
                      JOINT Bip01_Head_Muzzle
                      {
                        OFFSET 2.88628 13.9448 3.88994
                        CHANNELS 6 Xposition Yposition Zposition Zrotation Xrotation Yrotation
                        End Site
                        {
                          OFFSET 0 0 0
                        }
                      }
                      JOINT Bip01_Head1_Jaw
                      {
                        OFFSET 0.271065 1.32405 0
                        CHANNELS 6 Xposition Yposition Zposition Zrotation Xrotation Yrotation
                        JOINT _Bip01_Head11_TungeControler
                        {
                          OFFSET 4.61616 5.82872 0
                          CHANNELS 6 Xposition Yposition Zposition Zrotation Xrotation Yrotation
                          JOINT _Bip01_Ponytail3_tunge
                          {
                            OFFSET 5.17785 2.98805 0
                            CHANNELS 6 Xposition Yposition Zposition Zrotation Xrotation Yrotation
                            JOINT Bip01_Ponytail31
                            {
                              OFFSET 5.57569 0 0
                              CHANNELS 6 Xposition Yposition Zposition Zrotation Xrotation Yrotation
                              JOINT Bip01_Ponytail32
                              {
                                OFFSET 2.93165 0 0
                                CHANNELS 6 Xposition Yposition Zposition Zrotation Xrotation Yrotation
                                JOINT Bip01_Ponytail3Nub
                                {
                                  OFFSET 3.30155 0 0
                                  CHANNELS 6 Xposition Yposition Zposition Zrotation Xrotation Yrotation
                                  End Site
                                  {
                                    OFFSET 0 0 0
                                  }
                                }
                              }
                            }
                          }
                        }
                        JOINT Bip01_Head_JawNub
                        {
                          OFFSET 15.5776 -0.000389099 0
                          CHANNELS 6 Xposition Yposition Zposition Zrotation Xrotation Yrotation
                          End Site
                          {
                            OFFSET 0 0 0
                          }
                        }
                      }
                      JOINT Bip01_Ponytail2
                      {
                        OFFSET 9.40334 1.03973 -6.51764
                        CHANNELS 6 Xposition Yposition Zposition Zrotation Xrotation Yrotation
                        JOINT Bip01_Ponytail21
                        {
                          OFFSET 2.77018 -0.00640106 1.33514e-005
                          CHANNELS 6 Xposition Yposition Zposition Zrotation Xrotation Yrotation
                          End Site
                          {
                            OFFSET 0 0 0
                          }
                        }
                      }
                      JOINT Bip01_Ponytail1
                      {
                        OFFSET 9.40368 1.03969 6.51768
                        CHANNELS 6 Xposition Yposition Zposition Zrotation Xrotation Yrotation
                        JOINT Bip01_Ponytail11
                        {
                          OFFSET 2.77018 -0.00640487 0
                          CHANNELS 6 Xposition Yposition Zposition Zrotation Xrotation Yrotation
                          End Site
                          {
                            OFFSET 0 0 0
                          }
                        }
                      }
                    }
                  }
                }
              }
            }
          }
        }
      }
    }
  }
}
MOTION
Frames:	4
Frame Time:	0.0333333
0 0 -1e-006 -0 -90 -0 -0.262526 -24.7459 50.464 90 -3.50835e-015 90 0 0 0 -90 -3.50835e-015 -90 -6.45943 -3.86064 0.440312 133.257 2.8418 -2.67083 10.3793 -0.007213 7.00008e-006 -29.7613 -1.96845e-005 7.76675e-005 10.3834 -0.00827 1.29474e-010 0.498894 1.01029e-005 9.93812e-006 10.3853 -0.008037 3.50001e-005 13.1311 -6.0177e-006 -4.42265e-005 10.3848 -0.008144 8.00012e-006 9.584 6.9265e-006 -1.85926e-005 9.38275e-006 -1.5e-005 -8.75617 -97.4887 -11.9751 173.961 19.7638 3.55271e-015 1.06581e-014 -60.8852 0.000208763 0.000808595 18.6534 -3e-006 7.10543e-015 -27.4927 1.40049 7.55419 5.09143 13.9567 -3.09928e-007 114.81 3.10046 1.66943 4.288 1.42109e-014 3.55271e-015 53.6716 8.43266 1.28952 3.85799 -7.10542e-015 0 -45 2.47122e-005 3.75374e-005 -1.53827e-005 1.1e-005 8.75617 -110.948 -4.43458 -179.209 19.7638 -3.55271e-015 -5.32907e-015 -63.6033 0.000639291 0.00272424 18.6534 3e-006 1e-006 -25.4999 1.14675 -5.71881 5.09143 13.9567 -7.32679e-007 115 1.91444e-006 5.00001 4.288 -1e-006 3.19744e-014 51.474 -6.03001 0.263551 3.85799 -2.26485e-013 -1e-006 -45 -1.95938e-005 -2.16536e-005 9.1272 -0.0064076 -0.622128 0.0455259 0.00290971 3.95345 8.04366 -0.006404 1.24345e-014 -8.94357e-007 4.29992e-005 0.054077 8.04362 -0.006401 -1.77636e-015 -8.94357e-007 4.29992e-005 0.054077 8.04302 -0.008319 -1e-006 -4.29873 4.19639e-005 0.054089 10.67 1.06797 2.0007e-006 0.69085 1.44232e-007 1.00166e-005 -4.30516 -3.97468 -9.048 179.271 -85.4175 115.009 19.0492 7.10543e-015 1.42108e-014 89.746 8.41542 -103.465 10.3706 -7.10543e-015 3.55271e-015 -58.5383 0.000626299 0.00220557 22.8631 0 8.88178e-016 -16.6213 -0.171792 2.45135 6.48257 0.103655 0.504497 -68.7322 -2.18854 -14.2873 3.66843 1e-006 1.09601e-012 34.6071 7.27213e-005 -2.78756e-005 -4.30511 -3.97463 9.04791 179.263 85.4164 -114.999 19.0492 -1.77636e-015 0 88.6343 -8.31488 99.4939 10.3706 1e-006 5.32907e-014 -58.5385 0.000883408 0.00314261 22.8631 0 -7.10542e-015 -16.4598 -8.55639 -2.45309 6.48256 0.103653 -0.504496 -75.9429 0.95591 15.4702 3.66843 1e-006 -3e-006 40.107 3.39756e-005 -2.49064e-005 7.52562 -0.006732 -7.6e-005 -4.48654 -8.24715e-008 1.2002e-005 8.47688 -0.00645 -7.6e-005 15.6197 -5.55803e-006 -4.47531e-005 8.41605 3e-006 -1.02141e-014 -74.0224 0.196948 -0.0888691 -7e-006 1e-006 -3e-006 -23.1098 1.37701e-015 90 -4.69649e-007 -0.5 -1.02742e-006 96.2661 89.9999 -6.26609 0 0 0 -113.549 6.10352e-005 -180 2.8863 13.9448 3.88993 -22.989 1.3702e-015 90 0 0 0 -85.3358 7.01671e-015 -180 0 0 0 -120.289 1.95744e-006 -2.04315e-005 0 0 0 133.74 -2.04006e-005 5.91386e-006 0 0 0 -0.168468 8.34844e-008 6.20645e-009 0 0 0 -22.6319 2.72308e-006 7.80129e-007 0 0 0 -26.1943 1.98701e-007 -3.76035e-007 15.5776 -0.000396 -7e-006 2.75869e-033 3.97569e-016 -3.97569e-016 9.40333 1.03973 -6.51766 -19.0867 17.2452 20.3009 2.77018 -0.006404 -5.49996e-005 2.43506 9.24031e-006 -1.75518e-005 9.40367 1.03969 6.5177 -19.0868 -17.2452 -20.3008 2.77016 -0.006404 4.69996e-005 2.43506 9.29942e-006 -1.7889e-005 
0 0 -1e-006 -0 -90 -0 -0.262526 -24.7849 50.464 89.5301 -3.50824e-015 90 0 0 0 -90 -3.50835e-015 -90 -6.45943 -3.86064 0.440312 133.865 2.75317 -3.3141 10.3793 -0.007213 7.00008e-006 -29.149 -0.0600522 -0.613075 10.3834 -0.00827 1.43038e-010 -1.34305 0.0144639 -0.616477 10.3853 -0.008037 3.50001e-005 13.6909 -0.257244 -1.37388 10.3848 -0.008144 8.00014e-006 10.1957 -0.108703 -0.604437 9e-006 -1.5e-005 -8.75617 -97.8277 -11.8659 173.767 19.7638 -3.55271e-015 0 -61.1433 0.000204975 0.000809548 18.6534 -3e-006 0 -27.5271 1.20182 7.14462 5.09143 13.9567 -2.77599e-007 114.808 3.10041 1.66952 4.288 0 0 53.6716 8.43266 1.28952 3.85799 7.10542e-015 0 -45 2.46492e-005 3.76792e-005 -1.5e-005 1.1e-005 8.75617 -110.95 -4.38508 -179.286 19.7638 -7.10543e-015 5.32907e-015 -63.6818 0.000635492 0.00272513 18.6534 3e-006 1e-006 -25.5297 0.892035 -6.12927 5.09143 13.9567 -7.35821e-007 115 1.90997e-006 5.00001 4.288 -1e-006 2.84217e-014 51.474 -6.03001 0.263551 3.85799 -2.17604e-013 -1e-006 -45 -1.98735e-005 -2.19294e-005 9.1272 -0.006408 -0.622128 0.0455392 0.00265124 3.62822 8.04366 -0.006404 -1.91425e-012 -9.81441e-006 4.30444e-005 -0.271149 8.04362 -0.006401 -2.23155e-012 -9.81442e-006 4.30438e-005 -0.271149 8.04302 -0.008319 -1e-006 -4.29862 0.0243503 -0.269289 10.67 1.06797 1.98306e-006 -1.91019 0.614962 -1.46829 -4.34888 -4.27608 -8.88646 165.254 -84.5998 98.198 19.0492 -3.55272e-015 0 90.8852 8.06814 -104.275 10.3706 -1.77636e-015 -3.55271e-015 -58.5162 0.000627361 0.00220432 22.8631 -2.13163e-014 -5.32907e-015 -16.7638 -0.290142 1.79075 6.48257 0.103655 0.504497 -68.7322 -2.18854 -14.2873 3.66843 1e-006 1.02673e-012 34.6071 7.01031e-005 -2.50051e-005 -3.865 -4.06979 9.19994 -156.74 85.7126 -136.328 19.0492 -5.32907e-015 1.42108e-014 87.4644 -8.63598 98.6678 10.3706 1e-006 3.28626e-014 -58.7498 0.00087198 0.0031448 22.8631 -7.10543e-015 8.88178e-015 -16.1763 -8.68929 -3.13156 6.48256 0.103653 -0.504496 -75.9429 0.955905 15.4702 3.66843 1e-006 -3e-006 40.107 3.82369e-005 -2.7599e-005 7.52562 -0.006732 -7.59995e-005 -4.46783 0.833581 -1.34685 8.47688 -0.00645 -7.59993e-005 15.7047 0.831991 -1.34787 8.41605 3e-006 1.02363e-012 -73.0006 3.40812 -1.8763 -7e-006 1e-006 -3e-006 -23.1098 1.37701e-015 90 -5.18046e-007 -0.5 -1.02444e-006 -95.9844 89.9999 -174.016 0 0 0 -113.549 -7.6294e-005 -180 2.8863 13.9448 3.88993 -22.989 1.3702e-015 90 0 0 0 -83.987 -7.01671e-015 -180 0 0 0 -115.648 -1.2992e-005 -1.23221e-005 0 0 0 128.427 0.379843 -1.02298 0 0 0 0.232599 -2.65874e-008 -3.20584e-008 0 0 0 -23.0657 2.18991e-006 3.10431e-006 0 0 0 -26.1943 7.46638e-007 2.25128e-006 15.5776 -0.000396 -7.00006e-006 -3.18055e-015 3.97569e-016 7.95139e-016 9.40333 1.03973 -6.51766 -19.0866 17.2449 19.9053 2.77018 -0.006404 -5.49993e-005 2.43495 -0.0167821 -0.394883 9.40367 1.03969 6.5177 -19.0866 -17.2449 -19.7635 2.77016 -0.006404 4.69999e-005 2.43485 0.0228179 0.536368 
0 0 -1e-006 -0 -90 -0 -0.262526 -24.8251 50.464 88.8513 -3.50765e-015 90 0 0 0 -90 -3.50835e-015 -90 -6.45943 -3.86064 0.440312 134.788 2.60574 -4.28782 10.3793 -0.007213 7.00008e-006 -28.2217 -0.163552 -1.54184 10.3834 -0.00827 1.6364e-010 -4.13569 0.111979 -1.54815 10.3853 -0.008037 3.50002e-005 14.528 -0.672784 -3.45292 10.3848 -0.008144 8.00018e-006 11.1201 -0.297943 -1.51551 9e-006 -1.5e-005 -8.75617 -98.2453 -11.7215 173.512 19.7638 -3.55271e-015 0 -61.4548 0.000200366 0.000810681 18.6534 -3e-006 -1.42109e-014 -27.5688 0.932115 6.59273 5.09143 13.9567 -2.26963e-007 114.806 3.10036 1.66961 4.288 3.55271e-015 3.55271e-015 53.6716 8.43266 1.28952 3.85799 -1.77636e-014 -3.55271e-015 -45 2.44577e-005 3.77913e-005 -1.5e-005 1.1e-005 8.75617 -110.908 -4.32001 -179.387 19.7638 -1.06581e-014 3.55271e-015 -63.7575 0.000631797 0.00272599 18.6534 3e-006 1e-006 -25.5373 0.549591 -6.68412 5.09143 13.9567 -7.33231e-007 115 1.88521e-006 5.00001 4.288 -1e-006 3.01981e-014 51.474 -6.03001 0.26355 3.85799 -2.14939e-013 -1e-006 -45 -2.01783e-005 -2.22037e-005 9.1272 -0.006408 -0.622128 0.0455591 0.00228324 3.16534 8.04366 -0.006404 -4.29523e-012 -9.46693e-006 4.31076e-005 -0.734044 8.04362 -0.006401 -6.22879e-012 -9.46735e-006 4.30925e-005 -0.734044 8.04302 -0.008319 -1.00001e-006 -4.29798 0.0589431 -0.729548 10.67 1.06797 1.94537e-006 -5.59293 1.60579 -3.51185 -4.37935 -4.67806 -8.66486 153.512 -83.0993 82.7246 19.0492 1.77636e-015 -7.10542e-015 92.3942 7.58843 -105.348 10.3706 5.32907e-015 0 -58.4484 0.00063018 0.00220236 22.8631 -2.13163e-014 0 -16.9706 -0.455965 0.907981 6.48257 0.103655 0.504497 -68.7322 -2.18857 -14.2873 3.66843 1e-006 1.57385e-012 34.6071 9.8075e-005 -4.29098e-005 -3.26607 -4.16315 9.38635 -126.555 85.0446 -162.951 19.0492 0 -7.10542e-015 85.9094 -9.04833 97.5376 10.3706 1e-006 2.66453e-015 -58.9907 0.000858964 0.00314709 22.8631 -1.42109e-014 1.77636e-015 -15.8168 -8.89193 -4.01917 6.48256 0.103653 -0.504496 -75.9429 0.955901 15.4702 3.66843 1e-006 -3e-006 40.107 4.28245e-005 -3.02699e-005 7.52562 -0.006732 -7.59992e-005 -4.37623 2.02249 -3.26911 8.47688 -0.00645 -7.59988e-005 15.86 2.01504 -3.27374 8.41605 3e-006 2.26041e-013 -71.4499 7.66134 -3.85213 -7e-006 1e-006 -3e-006 -23.1098 1.37701e-015 90 -5.78612e-007 -0.5 -1.0217e-006 -106.74 90 -163.26 0 0 0 -113.549 -3.05176e-005 -180 2.8863 13.9448 3.88993 -22.989 1.3702e-015 90 0 0 0 -82.6383 7.01671e-015 -180 0 0 0 -111.007 -2.35955e-005 -5.32417e-006 0 0 0 123.128 0.759355 -2.04611 0 0 0 0.633668 4.59375e-007 -1.09604e-007 0 0 0 -23.4995 -3.52527e-006 3.76833e-006 0 0 0 -26.1943 1.02454e-006 5.38177e-006 15.5776 -0.000396 -7.00011e-006 -0 0 1.59028e-015 9.40333 1.03973 -6.51766 -19.0865 17.2446 19.4655 2.77018 -0.006404 -5.49992e-005 2.43453 -0.0354416 -0.833777 9.40367 1.03969 6.5177 -19.0865 -17.2445 -19.1662 2.77016 -0.006404 4.70006e-005 2.43412 0.0481579 1.1325 
0 0 -1e-006 -0 -90 -0 -0.262526 -24.8652 50.464 88.1067 -3.50644e-015 90 0 0 0 -90 -3.50835e-015 -90 -6.45943 -3.86064 0.440312 135.736 2.4377 -5.28866 10.3793 -0.007213 7.00007e-006 -27.2678 -0.285682 -2.49717 10.3834 -0.00827 1.84227e-010 -7.00941 0.307056 -2.4957 10.3853 -0.008037 3.50002e-005 15.3741 -1.13191 -5.58937 10.3848 -0.008144 8.00022e-006 12.0673 -0.523326 -2.44644 9e-006 -1.5e-005 -8.75617 -98.7132 -11.5564 173.226 19.7638 5.32907e-015 3.55271e-015 -61.7979 0.000195289 0.000811902 18.6534 -3e-006 -2.84217e-014 -27.6184 0.623216 5.95606 5.09143 13.9567 -1.71046e-007 114.805 3.10031 1.6697 4.288 -7.10543e-015 0 53.6716 8.43266 1.28952 3.85799 9.32587e-015 3.55271e-015 -45 2.43065e-005 3.79743e-005 -1.5e-005 1.1e-005 8.75617 -110.848 -4.2454 -179.502 19.7638 0 -3.55271e-015 -63.8331 0.000628094 0.00272685 18.6534 3e-006 1e-006 -25.546 0.159452 -7.32151 5.09143 13.9567 -7.34297e-007 115 1.86887e-006 5.00001 4.288 -1e-006 2.13163e-014 51.474 -6.03001 0.26355 3.85799 -2.20268e-013 -1e-006 -45 -2.05575e-005 -2.25664e-005 9.1272 -0.006408 -0.622128 0.0455776 0.00187732 2.65498 8.04366 -0.006404 -6.35714e-012 1.82303e-005 4.25633e-005 -1.2444 8.04362 -0.006401 -1.20586e-011 1.82266e-005 4.24445e-005 -1.2444 8.04302 -0.008319 -1.00004e-006 -4.29662 0.097068 -1.23702 10.67 1.06797 1.89088e-006 -9.60854 2.84332 -5.68756 -4.37339 -5.13869 -8.40175 146.203 -81.083 71.103 19.0492 -1.77636e-015 7.10542e-015 94.1379 7.01853 -106.56 10.3706 -1.42109e-014 7.10542e-015 -58.3461 0.000634331 0.00219988 22.8631 1.77636e-014 -1.77636e-014 -17.1962 -0.631091 -0.123967 6.48257 0.103655 0.504497 -68.7322 -2.18857 -14.2873 3.66843 1e-006 1.58984e-012 34.6071 0.000101158 -4.34312e-005 -2.56204 -4.22058 9.57579 -104.062 83.2614 178.669 19.0492 0 -1.42108e-014 84.1009 -9.52214 96.2111 10.3706 1e-006 -2.66453e-014 -59.2263 0.000846306 0.00314897 22.8631 -3.55271e-015 -2.66453e-015 -15.3924 -9.13573 -5.03888 6.48256 0.103653 -0.504496 -75.9429 0.955895 15.4702 3.66843 1e-006 -3e-006 40.107 4.90232e-005 -3.4134e-005 7.52562 -0.006732 -7.59991e-005 -4.18685 3.3264 -5.39205 8.47688 -0.00645 -7.59987e-005 16.0779 3.31144 -5.4013 8.41605 3e-006 -2.20268e-013 -69.5769 12.6122 -5.56642 -7e-006 1e-006 -3e-006 -23.1098 1.37701e-015 90 -6.278e-007 -0.5 -1.0229e-006 -114.713 90 -155.287 0 0 0 -113.549 -1.52588e-005 -180 2.8863 13.9448 3.88993 -22.989 1.3702e-015 90 0 0 0 -81.2895 -7.01671e-015 -180 0 0 0 -106.366 -2.4687e-005 -5.82565e-006 0 0 0 117.843 1.13815 -3.0695 0 0 0 1.03474 8.6234e-007 -1.28963e-007 0 0 0 -23.9334 -9.04129e-006 2.54677e-006 0 0 0 -26.1943 3.16914e-008 6.52386e-006 15.5776 -0.000396 -7.0001e-006 -6.36111e-015 1.59028e-015 3.18055e-015 9.40333 1.03973 -6.51766 -19.0864 17.2443 19.003 2.77018 -0.006404 -5.49995e-005 2.43381 -0.0550578 -1.29538 9.40367 1.03969 6.5177 -19.0863 -17.2439 -18.538 2.77016 -0.006404 4.70013e-005 2.43279 0.074787 1.75949 
